<?xml version="1.0" encoding="UTF-8" standalone="no"?>
<svg
   width="729.39667"
   height="642.2251"
   viewBox="0 0 729.39667 642.2251"
   fill="none"
   version="1.1"
   id="svg1"
   xmlns="http://www.w3.org/2000/svg"
   xmlns:svg="http://www.w3.org/2000/svg">
  <defs
     id="defs1" />
  <path
     d="M 158.10571,43.229512 C 241.7295,106.00899 331.67129,233.3054 364.69832,301.61185 397.72535,233.3054 487.66714,106.00899 571.29093,43.229512 c 60.33831,-45.2996395 158.10571,-80.3492 158.10571,31.18171 0,22.27485 -12.77086,187.117198 -20.26131,213.881438 C 683.09921,381.3331 588.22628,405.06418 503.83201,390.70097 651.34863,415.80737 688.87403,498.96886 607.8301,582.13035 453.912,740.0704 386.60719,542.50279 369.36107,491.87907 c -3.16158,-9.28054 -4.64092,-13.62225 -4.66275,-9.93032 -0.0218,-3.69193 -1.50117,0.64978 -4.66275,9.93032 C 342.78945,542.50279 275.48464,740.0704 121.56654,582.13035 40.52261,498.96886 78.04801,415.80737 225.56463,390.70097 141.17036,405.06418 46.29743,381.3331 20.26131,288.29266 12.77086,261.52842 0,96.686072 0,74.411222 0,-37.119688 97.7674,-2.0701275 158.10571,43.229512 Z"
     fill="#1185FE"
     id="path1"
     style="fill:#000000;stroke-width:1.28415" />
</svg>
